<svg width="15" height="14" viewBox="0 0 15 14" fill="none" xmlns="http://www.w3.org/2000/svg">
    <g clip-path="url(#clip0_2434_1874)">
        <path d="M4.95527 1.09676e-05H2.14827C1.77976 0.000432366 1.42646 0.14701 1.16588 0.407589C0.9053 0.668167 0.758722 1.02147 0.758301 1.38998V12.61C0.758722 12.9785 0.9053 13.3318 1.16588 13.5924C1.42646 13.853 1.77976 13.9996 2.14827 14H4.95527C5.32378 13.9996 5.67708 13.853 5.93766 13.5924C6.19824 13.3318 6.34482 12.9785 6.34524 12.61V1.38998C6.34482 1.02147 6.19824 0.668167 5.93766 0.407589C5.67708 0.14701 5.32378 0.000432366 4.95527 1.09676e-05ZM2.14827 0.926656H4.95527C5.07815 0.926656 5.196 0.975471 5.28289 1.06236C5.36978 1.14925 5.41859 1.2671 5.41859 1.38998V3.47493H1.68495V1.38998C1.68516 1.26716 1.73404 1.14944 1.82088 1.06259C1.90773 0.975749 2.02545 0.926867 2.14827 0.926656ZM4.95527 13.0734H2.14827C2.02545 13.0731 1.90773 13.0243 1.82088 12.9374C1.73404 12.8506 1.68516 12.7328 1.68495 12.61V4.40158H5.41859V12.61C5.41838 12.7328 5.3695 12.8506 5.28266 12.9374C5.19581 13.0243 5.07809 13.0731 4.95527 13.0734ZM11.1783 1.09676e-05H8.37049C8.00205 0.000432704 7.64883 0.147036 7.38838 0.407637C7.12792 0.668238 6.98152 1.02154 6.98131 1.38998V12.61C6.98152 12.9785 7.12792 13.3318 7.38838 13.5924C7.64883 13.853 8.00205 13.9996 8.37049 14H11.1783C11.5468 13.9996 11.9001 13.853 12.1607 13.5924C12.4213 13.3318 12.5678 12.9785 12.5683 12.61V1.38998C12.5678 1.02147 12.4213 0.668167 12.1607 0.407589C11.9001 0.14701 11.5468 0.00043237 11.1783 1.09676e-05ZM8.37049 0.926656H11.1783C11.3011 0.926867 11.4188 0.975749 11.5057 1.06259C11.5925 1.14944 11.6414 1.26716 11.6416 1.38998V3.47493H7.90716V1.38998C7.90737 1.26716 7.95626 1.14944 8.0431 1.06259C8.12994 0.975749 8.24767 0.926867 8.37049 0.926656ZM11.1783 13.0734H8.37049C8.24767 13.0731 8.12994 13.0243 8.0431 12.9374C7.95626 12.8506 7.90737 12.7328 7.90716 12.61V4.40158H11.6416V12.61C11.6414 12.7328 11.5925 12.8506 11.5057 12.9374C11.4188 13.0243 11.3011 13.0731 11.1783 13.0734ZM13.6669 1.09676e-05C13.606 -9.3897e-05 13.5457 0.0118187 13.4894 0.0350657C13.4332 0.0583127 13.382 0.0924368 13.339 0.135481C13.296 0.178526 13.2618 0.229644 13.2386 0.285904C13.2153 0.342164 13.2034 0.40246 13.2035 0.463334V13.5335C13.2035 13.6567 13.2525 13.7748 13.3396 13.862C13.4267 13.9491 13.5449 13.998 13.668 13.998C13.7912 13.998 13.9094 13.9491 13.9965 13.862C14.0836 13.7748 14.1326 13.6567 14.1326 13.5335V0.463334C14.1327 0.402258 14.1207 0.341766 14.0973 0.285349C14.0739 0.228932 14.0395 0.177707 13.9963 0.134631C13.953 0.0915553 13.9016 0.0574812 13.845 0.0343756C13.7885 0.01127 13.7279 -0.000409614 13.6669 1.09676e-05Z" fill="#5B5B5B"/>
        <path d="M2.97778 2.14941C2.97487 2.22854 2.98795 2.30744 3.01622 2.38141C3.0445 2.45537 3.08739 2.52288 3.14235 2.57989C3.1973 2.6369 3.26318 2.68225 3.33606 2.71323C3.40893 2.7442 3.48731 2.76016 3.56649 2.76016C3.64568 2.76016 3.72405 2.7442 3.79692 2.71323C3.8698 2.68225 3.93568 2.6369 3.99064 2.57989C4.04559 2.52288 4.08849 2.45537 4.11676 2.38141C4.14504 2.30744 4.15811 2.22854 4.1552 2.14941C4.14959 1.99702 4.08512 1.85274 3.97532 1.74691C3.86553 1.64109 3.71898 1.58195 3.56649 1.58195C3.414 1.58195 3.26745 1.64109 3.15766 1.74691C3.04787 1.85274 2.98339 1.99702 2.97778 2.14941ZM9.2008 2.14941C9.2008 2.26592 9.23535 2.37982 9.30008 2.4767C9.36481 2.57357 9.45682 2.64908 9.56446 2.69367C9.67211 2.73826 9.79056 2.74992 9.90483 2.72719C10.0191 2.70446 10.1241 2.64835 10.2065 2.56597C10.2889 2.48358 10.345 2.37861 10.3677 2.26434C10.3904 2.15006 10.3788 2.03161 10.3342 1.92397C10.2896 1.81632 10.2141 1.72432 10.1172 1.65958C10.0203 1.59485 9.90642 1.5603 9.7899 1.5603C9.71254 1.5603 9.63594 1.57554 9.56446 1.60515C9.49299 1.63475 9.42805 1.67814 9.37334 1.73285C9.31864 1.78755 9.27525 1.85249 9.24564 1.92397C9.21604 1.99544 9.2008 2.07204 9.2008 2.14941Z" fill="#5B5B5B"/>
    </g>
    <defs>
        <clipPath id="clip0_2434_1874">
            <rect width="14" height="14" fill="white" transform="translate(0.445435)"/>
        </clipPath>
    </defs>
</svg>
