<svg width="15" height="14" viewBox="0 0 15 14" fill="none" xmlns="http://www.w3.org/2000/svg">
    <path d="M13.0969 4.78105L8.35596 0.837691C8.10079 0.623735 7.77843 0.50647 7.44543 0.50647C7.11243 0.50647 6.79007 0.623735 6.5349 0.837691L1.7974 4.78105C1.63628 4.91442 1.50669 5.08181 1.41791 5.27119C1.32914 5.46058 1.28339 5.66726 1.28394 5.87642V11.4491C1.28394 11.9939 1.50033 12.5163 1.88549 12.9014C2.27066 13.2866 2.79306 13.503 3.33777 13.503H11.5531C12.0978 13.503 12.6202 13.2866 13.0054 12.9014C13.3905 12.5163 13.6069 11.9939 13.6069 11.4491V5.87642C13.6074 5.66761 13.562 5.46125 13.4738 5.27195C13.3857 5.08266 13.257 4.91506 13.0969 4.78105ZM12.6587 11.4491C12.6578 11.7421 12.5411 12.0228 12.3339 12.23C12.1268 12.4371 11.8461 12.5539 11.5531 12.5548H3.33777C3.04481 12.5539 2.76411 12.4371 2.55696 12.23C2.34981 12.0228 2.23303 11.7421 2.23213 11.4491V5.87642C2.23224 5.80659 2.24762 5.73762 2.27719 5.67436C2.30675 5.61109 2.34979 5.55505 2.40328 5.51016L7.14078 1.55653C7.2257 1.48397 7.33373 1.4441 7.44543 1.4441C7.55713 1.4441 7.66516 1.48397 7.75008 1.55653L12.4876 5.51016C12.5411 5.55505 12.5841 5.61109 12.6137 5.67436C12.6432 5.73762 12.6586 5.80659 12.6587 5.87642V11.4491Z" fill="#5B5B5B"/>
    <path d="M7.44543 8.02612C7.30926 8.02612 7.17866 8.08022 7.08236 8.17651C6.98607 8.2728 6.93198 8.4034 6.93198 8.53958V10.9357C6.93198 11.0719 6.98607 11.2025 7.08236 11.2988C7.17866 11.3951 7.30926 11.4492 7.44543 11.4492C7.58161 11.4492 7.71221 11.3951 7.8085 11.2988C7.9048 11.2025 7.95889 11.0719 7.95889 10.9357V8.53958C7.95889 8.4034 7.9048 8.2728 7.8085 8.17651C7.71221 8.08022 7.58161 8.02612 7.44543 8.02612Z" fill="#5B5B5B"/>
</svg>
