<svg width="15" height="14" viewBox="0 0 15 14" fill="none" xmlns="http://www.w3.org/2000/svg">
    <path fill-rule="evenodd" clip-rule="evenodd" d="M1.94531 0.75H12.9453V8.97907C12.9453 9.25522 12.7215 9.47908 12.4453 9.47908C12.1692 9.47908 11.9453 9.25522 11.9453 8.97907V1.75H2.94531V12.25H11.9453V11.25C11.9453 10.9739 12.1692 10.75 12.4453 10.75C12.7215 10.75 12.9453 10.9739 12.9453 11.25V13.25H1.94531V0.75Z" fill="#5B5B5B"/>
    <path fill-rule="evenodd" clip-rule="evenodd" d="M1.94531 4.75C1.94531 4.47386 2.16917 4.25 2.44531 4.25H12.4453C12.7215 4.25 12.9453 4.47386 12.9453 4.75C12.9453 5.02614 12.7215 5.25 12.4453 5.25H2.44531C2.16917 5.25 1.94531 5.02614 1.94531 4.75ZM3.44531 6.75C3.44531 6.47386 3.66917 6.25 3.94531 6.25H6.94531C7.22146 6.25 7.44531 6.47386 7.44531 6.75C7.44531 7.02614 7.22146 7.25 6.94531 7.25H3.94531C3.66917 7.25 3.44531 7.02614 3.44531 6.75ZM3.44531 8.75C3.44531 8.47386 3.66917 8.25 3.94531 8.25H6.94531C7.22146 8.25 7.44531 8.47386 7.44531 8.75C7.44531 9.02614 7.22146 9.25 6.94531 9.25H3.94531C3.66917 9.25 3.44531 9.02614 3.44531 8.75ZM3.44531 10.75C3.44531 10.4739 3.66917 10.25 3.94531 10.25H10.4453C10.7215 10.25 10.9453 10.4739 10.9453 10.75C10.9453 11.0261 10.7215 11.25 10.4453 11.25H3.94531C3.66917 11.25 3.44531 11.0261 3.44531 10.75Z" fill="#5B5B5B"/>
    <path fill-rule="evenodd" clip-rule="evenodd" d="M9.58105 8.36475C9.99055 8.36475 10.3225 8.03279 10.3225 7.62329C10.3225 7.2138 9.99055 6.88184 9.58105 6.88184C9.17156 6.88184 8.8396 7.2138 8.8396 7.62329C8.8396 8.03279 9.17156 8.36475 9.58105 8.36475ZM9.58105 9.36475C10.5428 9.36475 11.3225 8.58507 11.3225 7.62329C11.3225 6.66151 10.5428 5.88184 9.58105 5.88184C8.61928 5.88184 7.8396 6.66151 7.8396 7.62329C7.8396 8.58507 8.61928 9.36475 9.58105 9.36475Z" fill="#5B5B5B"/>
    <path d="M4.78918 3.04639C4.78918 2.79667 4.58675 2.59424 4.33704 2.59424C4.08732 2.59424 3.88489 2.79667 3.88489 3.04639C3.88489 3.2961 4.08732 3.49854 4.33704 3.49854C4.58675 3.49854 4.78918 3.2961 4.78918 3.04639Z" fill="#5B5B5B"/>
    <path d="M6.56934 3.04639C6.56934 2.79667 6.3669 2.59424 6.11719 2.59424C5.86747 2.59424 5.66504 2.79667 5.66504 3.04639C5.66504 3.2961 5.86747 3.49854 6.11719 3.49854C6.3669 3.49854 6.56934 3.2961 6.56934 3.04639Z" fill="#5B5B5B"/>
    <path d="M8.34961 3.04639C8.34961 2.79667 8.14718 2.59424 7.89746 2.59424C7.64775 2.59424 7.44531 2.79667 7.44531 3.04639C7.44531 3.2961 7.64775 3.49854 7.89746 3.49854C8.14718 3.49854 8.34961 3.2961 8.34961 3.04639Z" fill="#5B5B5B"/>
</svg>
