<svg width="15" height="14" viewBox="0 0 15 14" fill="none" xmlns="http://www.w3.org/2000/svg">
    <path fill-rule="evenodd" clip-rule="evenodd" d="M11.2573 5.41182C11.2699 5.31139 11.2793 5.21096 11.2793 5.10425C11.2793 4.99754 11.2699 4.89711 11.2573 4.79668L11.9195 4.27883C11.9792 4.23175 11.9948 4.14701 11.9572 4.07797L11.3295 2.99205C11.3012 2.94184 11.2479 2.91359 11.1914 2.91359C11.1726 2.91359 11.1537 2.91673 11.138 2.92301L10.3566 3.23686C10.1934 3.11132 10.0176 3.00775 9.82616 2.92928L9.7069 2.09759C9.69748 2.02226 9.63157 1.96577 9.55311 1.96577H8.29772C8.21926 1.96577 8.15335 2.02226 8.14393 2.09759L8.02467 2.92928C7.83323 3.00775 7.65747 3.11445 7.49427 3.23686L6.71279 2.92301C6.69396 2.91673 6.67513 2.91359 6.6563 2.91359C6.60294 2.91359 6.54959 2.94184 6.52134 2.99205L5.89365 4.07797C5.85285 4.14701 5.87168 4.23175 5.93131 4.27883L6.59353 4.79668C6.58097 4.89711 6.57156 5.00068 6.57156 5.10425C6.57156 5.20782 6.58097 5.31139 6.59353 5.41182L5.93131 5.92967C5.87168 5.97675 5.85598 6.06148 5.89365 6.13053L6.52134 7.21644C6.54959 7.26666 6.60294 7.29491 6.65944 7.29491C6.67827 7.29491 6.6971 7.29177 6.71279 7.28549L7.49427 6.97164C7.65747 7.09718 7.83323 7.20075 8.02467 7.27921L8.14393 8.11091C8.15335 8.18623 8.21926 8.24273 8.29772 8.24273H9.55311C9.63157 8.24273 9.69748 8.18623 9.7069 8.11091L9.82616 7.27921C10.0176 7.20075 10.1934 7.09404 10.3566 6.97164L11.138 7.28549C11.1569 7.29177 11.1757 7.29491 11.1945 7.29491C11.2479 7.29491 11.3012 7.26666 11.3295 7.21644L11.9572 6.13053C11.9948 6.06148 11.9792 5.97675 11.9195 5.92967L11.2573 5.41182ZM10.3708 5.10429C10.3708 5.90293 9.72336 6.55036 8.92472 6.55036C8.12607 6.55036 7.47864 5.90293 7.47864 5.10429C7.47864 4.30564 8.12607 3.65821 8.92472 3.65821C9.72336 3.65821 10.3708 4.30564 10.3708 5.10429Z" fill="#5B5B5B"/>
    <path fill-rule="evenodd" clip-rule="evenodd" d="M8.13433 0.274902C6.44448 0.274902 5.14069 1.04701 4.21394 1.97998C3.31853 2.8814 2.75171 3.95377 2.49007 4.70664L1.06833 6.98144C0.744057 7.50027 1.03877 8.1832 1.63873 8.30319L2.44245 8.46394V10.1003C2.44245 10.3572 2.56867 10.7884 2.94068 11.1604C3.0589 11.2787 3.20095 11.339 3.30486 11.3726C3.41586 11.4085 3.53406 11.4297 3.6464 11.443C3.8713 11.4696 4.13092 11.4707 4.38436 11.4602C4.65474 11.4489 4.93811 11.4233 5.19812 11.3929V13.7254H10.7261V10.0716C11.3165 9.74192 12.074 9.22214 12.7259 8.56765C13.4802 7.81034 14.1707 6.79344 14.1707 5.62233C14.1707 4.29334 13.6955 2.94902 12.6821 1.93568C11.6641 0.917685 10.1448 0.274902 8.13433 0.274902ZM3.46551 5.09943C3.67308 4.47672 4.16784 3.5163 4.95888 2.71996C5.74294 1.93063 6.79295 1.3249 8.13433 1.3249C9.91292 1.3249 11.1493 1.88773 11.9397 2.67814C12.7347 3.47322 13.1207 4.5401 13.1207 5.62233C13.1207 6.38019 12.6629 7.14299 11.982 7.82667C11.3115 8.49984 10.4994 9.0197 9.9663 9.28626L9.67609 9.43137V12.6754H6.24812V10.1695L5.63681 10.2714C5.3064 10.3264 4.795 10.3921 4.34065 10.4111C4.11185 10.4206 3.91506 10.4174 3.76967 10.4002C3.71264 10.3935 3.67242 10.3856 3.64635 10.3788C3.5829 10.3068 3.54391 10.2374 3.52062 10.1818C3.49681 10.1249 3.49245 10.0916 3.49245 10.0916V7.60314L2.09291 7.32324L3.44576 5.15869L3.46551 5.09943Z" fill="#5B5B5B"/>
</svg>
