<svg width="15" height="14" viewBox="0 0 15 14" fill="none" xmlns="http://www.w3.org/2000/svg">
    <path d="M7.76363 7.57276C8.71818 7.00003 9.35454 5.98185 9.35454 4.8364C9.35454 3.05458 7.8909 1.59094 6.10909 1.59094C4.32727 1.59094 2.73636 3.05458 2.73636 4.8364C2.73636 5.98185 3.37272 7.00003 4.32727 7.57276C2.60908 8.20913 1.39999 9.86367 1.39999 11.8364C1.39999 12.1546 1.65454 12.4091 1.97272 12.4091C2.2909 12.4091 2.54545 12.1546 2.54545 11.8364C2.54545 9.92731 4.13636 8.3364 6.04545 8.3364C8.01818 8.3364 9.54545 9.92731 9.54545 11.8364C9.54545 12.1546 9.79999 12.4091 10.1182 12.4091C10.4364 12.4091 10.6909 12.1546 10.6909 11.8364C10.6909 9.92731 9.48181 8.27276 7.76363 7.57276ZM6.04545 7.00003C4.83636 7.00003 3.88181 6.04549 3.88181 4.8364C3.88181 3.62731 4.83636 2.67276 6.04545 2.67276C7.25454 2.67276 8.20909 3.62731 8.20909 4.8364C8.20909 6.04549 7.25454 7.00003 6.04545 7.00003ZM10.8818 4.70912H12.9818C13.3 4.70912 13.4909 4.45458 13.4909 4.20003C13.4909 3.88185 13.2364 3.69094 12.9818 3.69094H10.8818C10.5636 3.69094 10.3727 3.94549 10.3727 4.20003C10.3091 4.45458 10.5636 4.70912 10.8818 4.70912Z" fill="#5B5B5B"/>
    <path d="M12.9818 5.6637H10.3091C9.9909 5.6637 9.79999 5.91824 9.79999 6.17279C9.79999 6.49097 10.0545 6.68188 10.3091 6.68188H12.9818C13.3 6.68188 13.4909 6.42733 13.4909 6.17279C13.4909 5.91824 13.2364 5.6637 12.9818 5.6637ZM12.9818 7.70006H10.8818C10.5636 7.70006 10.3727 7.95461 10.3727 8.20915C10.3727 8.52733 10.6273 8.71824 10.8818 8.71824H12.9818C13.3 8.71824 13.4909 8.4637 13.4909 8.20915C13.4909 7.95461 13.2364 7.70006 12.9818 7.70006Z" fill="#5B5B5B"/>
</svg>
