<svg width="28" height="28" viewBox="0 0 28 28" fill="none" xmlns="http://www.w3.org/2000/svg">
<!--    <circle cx="14" cy="14" r="14" fill="#F3F1F8"/>-->
    <g clip-path="url(#clip0_2396_2827)">
        <path d="M20.6667 14.8333H7.33333C6.875 14.8333 6.5 15.2083 6.5 15.6667V20.6667C6.5 21.125 6.875 21.5 7.33333 21.5H20.6667C21.125 21.5 21.5 21.125 21.5 20.6667V15.6667C21.5 15.2083 21.125 14.8333 20.6667 14.8333ZM20.6667 6.5H7.33333C6.875 6.5 6.5 6.875 6.5 7.33333V12.3333C6.5 12.7917 6.875 13.1667 7.33333 13.1667H20.6667C21.125 13.1667 21.5 12.7917 21.5 12.3333V7.33333C21.5 6.875 21.125 6.5 20.6667 6.5Z" fill="#5B46F6"/>
        <path d="M8.58337 18.1668C8.58337 18.8585 9.15004 19.4168 9.83337 19.4168C10.525 19.4168 11.0834 18.8585 11.0834 18.1668C11.0834 17.4752 10.5167 16.9168 9.83337 16.9168C9.15004 16.9168 8.58337 17.4752 8.58337 18.1668Z" fill="white"/>
        <path d="M8.58337 9.8335C8.58337 10.5252 9.15004 11.0835 9.83337 11.0835C10.525 11.0835 11.0834 10.5168 11.0834 9.8335C11.0834 9.15016 10.5167 8.5835 9.83337 8.5835C9.15004 8.5835 8.58337 9.14183 8.58337 9.8335Z" fill="white"/>
    </g>
<!--    <defs>-->
<!--        <clipPath id="clip0_2396_2827">-->
<!--            <rect width="20" height="20" fill="white" transform="translate(4 4)"/>-->
<!--        </clipPath>-->
<!--    </defs>-->
</svg>
