<svg xmlns="http://www.w3.org/2000/svg" width="28" height="28" viewBox="0 0 28 28" fill="none">
    <path d="M19.9976 5C20.1901 5 20.3827 5.00872 20.5752 5.02614C20.867 5.05251 21.1382 5.18493 21.3355 5.39737C21.5329 5.60981 21.642 5.88693 21.6416 6.17428V19.1251C21.6415 19.4235 21.5234 19.7101 21.312 19.9247C21.1006 20.1393 20.8126 20.265 20.5086 20.2755C19.5257 20.2913 18.5501 20.4428 17.6103 20.7254C16.4787 21.1231 15.4475 21.7546 14.5865 22.5772V8.09474C15.1331 7.15939 15.9206 6.38122 16.8702 5.8381C17.8198 5.29498 18.8982 5.00597 19.9976 5ZM22.8191 19.3986V7.58059C22.9735 7.58032 23.1264 7.61003 23.269 7.66798C23.4116 7.72594 23.5411 7.81101 23.6501 7.91828C23.8698 8.13483 23.9935 8.42761 23.9944 8.73308V20.4585C24.0169 20.7644 23.971 21.0715 23.86 21.3583C23.7489 21.6451 23.5753 21.9046 23.3514 22.1188C23.1275 22.333 22.8586 22.4967 22.5634 22.5984C22.2683 22.7002 21.9541 22.7376 21.6427 22.7079C20.8548 22.6096 20.0608 22.5663 19.2666 22.5783C18.0081 22.5415 16.7492 22.635 15.5108 22.8571C16.2395 22.2994 17.0845 21.9059 17.9858 21.7046C18.8411 21.5515 19.708 21.4684 20.5774 21.4563C21.1495 21.4625 21.702 21.252 22.1198 20.8687C22.5376 20.4854 22.7885 19.9588 22.8203 19.3986H22.8191ZM8.00022 5C9.09954 5.00597 10.178 5.29498 11.1276 5.8381C12.0772 6.38122 12.8647 7.15939 13.4112 8.09474V22.5826C12.5514 21.7586 11.5198 21.1269 10.3875 20.7308C9.44762 20.4489 8.47195 20.2981 7.48922 20.2831C7.1851 20.2724 6.89713 20.1461 6.68612 19.9311C6.47511 19.7161 6.35759 19.429 6.35836 19.1306V6.17537C6.35826 5.88832 6.46761 5.61161 6.66493 5.39957C6.86225 5.18754 7.13328 5.05551 7.42479 5.02941C7.61594 5.00971 7.80802 4.99989 8.00022 5ZM5.17863 19.3986C5.18489 19.6811 5.24905 19.9594 5.36728 20.2171C5.48552 20.4748 5.6554 20.7066 5.86684 20.8985C6.07827 21.0905 6.32693 21.2388 6.59801 21.3347C6.8691 21.4305 7.15707 21.4718 7.44479 21.4563C8.47012 21.4933 9.11109 21.6033 10.0142 21.7046C10.9407 21.8464 11.806 22.2465 12.507 22.8571C11.2632 22.6217 9.99579 22.5282 8.73006 22.5783C7.82026 22.5783 7.66141 22.7079 6.35392 22.7079C5.74315 22.6976 5.15942 22.4591 4.72194 22.041C4.28446 21.623 4.02624 21.0569 4 20.4585V8.7309C4 8.57956 4.0304 8.42969 4.08946 8.28986C4.14853 8.15004 4.2351 8.02299 4.34424 7.91597C4.45337 7.80895 4.58294 7.72406 4.72553 7.66614C4.86812 7.60822 5.02095 7.57841 5.17529 7.57841V19.3986H5.17863Z" fill="#5B46F6"/>
</svg>
