<svg width="40" height="40" viewBox="0 0 40 40" fill="none" xmlns="http://www.w3.org/2000/svg">
    <path fill-rule="evenodd" clip-rule="evenodd" d="M31.018 6H9.95064C8.86029 6 7.92926 6.38238 7.15756 7.15485C6.38585 7.92733 6 8.85681 6 9.94735V24.4332C6 25.5236 6.38585 26.4573 7.15756 27.2261C7.92926 27.9986 8.86029 28.3848 9.95064 28.3848H11.2671V34.9679L20.4834 28.3846H31.018C32.1076 28.3846 33.0394 27.9984 33.8111 27.2259C34.5824 26.4573 34.9679 25.5238 34.9679 24.4332V9.94735C34.9679 8.857 34.5824 7.92733 33.8111 7.15485C33.0394 6.38238 32.1076 6 31.018 6ZM27.4935 10.0205C27.3426 10.0068 27.1916 10 27.0406 10C26.1788 10.0047 24.1642 10.2313 23.4197 10.6571C22.6752 11.0829 22.0578 11.693 21.6294 12.4263V23.7805C22.3044 23.1356 23.1128 22.6405 24 22.3287C24.7368 22.1071 26.6707 21.9884 27.4413 21.976C27.6796 21.9678 27.9055 21.8692 28.0712 21.701C28.2369 21.5327 28.3295 21.308 28.3296 21.0741V10.9206C28.3299 10.6954 28.2443 10.4781 28.0896 10.3115C27.9349 10.145 27.7223 10.0412 27.4935 10.0205ZM18.588 10.6573C17.8435 10.2315 15.6491 10.0049 14.7872 10.0002C14.6365 10.0002 14.4859 10.0079 14.3361 10.0233C14.1075 10.0438 13.895 10.1473 13.7403 10.3135C13.5856 10.4797 13.4999 10.6967 13.5 10.9217V21.0786C13.4994 21.3126 13.5915 21.5376 13.757 21.7062C13.9224 21.8748 14.1482 21.9738 14.3866 21.9822C15.1571 21.994 17.2708 22.1121 18.0077 22.3332C18.8955 22.6437 19.7042 23.139 20.3783 23.785V12.4265C19.9498 11.6932 19.3325 11.0831 18.588 10.6573Z" fill="#CAC2FF"/>
</svg>
