<svg width="16" height="17" viewBox="0 0 16 17" fill="none" xmlns="http://www.w3.org/2000/svg">
    <path d="M13.261 4H3.1261C2.50674 4 2 4.49184 2 5.09298V12.1973C2 12.7985 2.50674 13.2903 3.1261 13.2903H13.261C13.8804 13.2903 14.3871 12.7985 14.3871 12.1973V5.09298C14.3871 4.49184 13.8804 4 13.261 4ZM3.1261 12.1973V5.09298H7.6305V12.1973H3.1261ZM13.261 12.1973H8.7566V5.09298H13.261V12.1973ZM9.31965 7.00569H12.6979V7.82543H9.31965V7.00569ZM9.31965 8.37192H12.6979V9.19165H9.31965V8.37192ZM9.31965 9.73814H12.6979V10.5579H9.31965V9.73814Z" fill="#878789"/>
</svg>
