<svg width="40" height="40" viewBox="0 0 40 40" fill="none" xmlns="http://www.w3.org/2000/svg">
    <path d="M28.3966 8C28.6661 8 28.9357 8.0122 29.2053 8.0366C29.6138 8.07352 29.9935 8.2589 30.2697 8.55632C30.546 8.85374 30.6989 9.2417 30.6983 9.644V27.7752C30.6981 28.1929 30.5327 28.5942 30.2368 28.8946C29.9409 29.195 29.5376 29.371 29.112 29.3857C27.736 29.4078 26.3701 29.6199 25.0544 30.0155C23.4702 30.5723 22.0265 31.4565 20.8211 32.6081V12.3326C21.5863 11.0232 22.6888 9.93371 24.0182 9.17334C25.3477 8.41297 26.8575 8.00836 28.3966 8ZM32.3468 28.158V11.6128C32.5629 11.6125 32.777 11.654 32.9766 11.7352C33.1763 11.8163 33.3576 11.9354 33.5101 12.0856C33.8177 12.3888 33.9909 12.7987 33.9922 13.2263V29.6419C34.0237 30.0702 33.9594 30.5001 33.8039 30.9016C33.6485 31.3031 33.4055 31.6665 33.092 31.9664C32.7785 32.2662 32.402 32.4954 31.9888 32.6378C31.5756 32.7803 31.1357 32.8326 30.6998 32.7911C29.5968 32.6535 28.4851 32.5928 27.3732 32.6096C25.6114 32.5581 23.8489 32.689 22.1151 33C23.1352 32.2192 24.3183 31.6683 25.5801 31.3865C26.7776 31.1721 27.9912 31.0558 29.2084 31.0388C30.0094 31.0475 30.7829 30.7528 31.3678 30.2161C31.9527 29.6795 32.304 28.9423 32.3484 28.158H32.3468ZM11.6003 8C13.1394 8.00836 14.6492 8.41297 15.9786 9.17334C17.3081 9.93371 18.4106 11.0232 19.1757 12.3326V32.6157C17.9719 31.4621 16.5278 30.5777 14.9425 30.0231C13.6267 29.6284 12.2607 29.4174 10.8849 29.3963C10.4591 29.3813 10.056 29.2046 9.76057 28.9035C9.46516 28.6025 9.30063 28.2006 9.30171 27.7828V9.64552C9.30157 9.24365 9.45465 8.85625 9.7309 8.5594C10.0071 8.26255 10.3866 8.07771 10.7947 8.04118C11.0623 8.01359 11.3312 7.99985 11.6003 8ZM7.65008 28.158C7.65885 28.5535 7.74867 28.9432 7.9142 29.304C8.07972 29.6648 8.31756 29.9892 8.61357 30.258C8.90958 30.5267 9.2577 30.7344 9.63722 30.8685C10.0167 31.0027 10.4199 31.0606 10.8227 31.0388C12.2582 31.0906 13.1555 31.2447 14.4199 31.3865C15.7169 31.585 16.9284 32.1451 17.9098 33C16.1685 32.6704 14.3941 32.5394 12.6221 32.6096C11.3484 32.6096 11.126 32.7911 9.29549 32.7911C8.44041 32.7767 7.62319 32.4428 7.01072 31.8575C6.39825 31.2722 6.03673 30.4797 6 29.6419V13.2233C6 13.0114 6.04256 12.8016 6.12525 12.6058C6.20794 12.4101 6.32914 12.2322 6.48193 12.0824C6.63472 11.9325 6.81611 11.8137 7.01574 11.7326C7.21537 11.6515 7.42933 11.6098 7.64541 11.6098V28.158H7.65008Z" fill="#CAC2FF"/>
</svg>
