<svg width="40" height="40" viewBox="0 0 40 40" fill="none" xmlns="http://www.w3.org/2000/svg">
    <path fill-rule="evenodd" clip-rule="evenodd" d="M31.018 6H9.95064C8.86029 6 7.92926 6.38238 7.15756 7.15485C6.38585 7.92733 6 8.85681 6 9.94735V24.4332C6 25.5236 6.38585 26.4573 7.15756 27.2261C7.92926 27.9986 8.86029 28.3848 9.95064 28.3848H11.2671V34.9679L20.4834 28.3846H31.018C32.1076 28.3846 33.0394 27.9984 33.8111 27.2259C34.5824 26.4573 34.9679 25.5238 34.9679 24.4332V9.94735C34.9679 8.857 34.5824 7.92733 33.8111 7.15485C33.0394 6.38238 32.1076 6 31.018 6ZM16.6927 10.4839C17.114 10.4838 17.5312 10.5667 17.9205 10.7279C18.3098 10.8891 18.6635 11.1255 18.9614 11.4234C19.2594 11.7213 19.4957 12.075 19.657 12.4643C19.8182 12.8536 19.9012 13.2708 19.9012 13.6922V16.3625C19.9012 16.5053 19.8445 16.6423 19.7435 16.7433C19.6426 16.8442 19.5056 16.901 19.3628 16.901H16.6927C15.8418 16.901 15.0257 16.5629 14.4241 15.9612C13.8224 15.3595 13.4844 14.5434 13.4844 13.6924C13.4844 12.8415 13.8224 12.0254 14.4241 11.4236C15.0257 10.8219 15.8418 10.4839 16.6927 10.4839ZM24.2761 10.4839C25.127 10.4839 25.943 10.8219 26.5447 11.4236C27.1464 12.0254 27.4844 12.8415 27.4844 13.6924C27.4844 14.5434 27.1464 15.3595 26.5447 15.9612C25.943 16.5629 25.127 16.901 24.2761 16.901H21.6059C21.4631 16.901 21.3262 16.8442 21.2252 16.7433C21.1242 16.6423 21.0675 16.5053 21.0675 16.3625V13.6922C21.0675 13.2708 21.1505 12.8536 21.3118 12.4643C21.473 12.075 21.7094 11.7213 22.0073 11.4234C22.3053 11.1255 22.659 10.8891 23.0483 10.7279C23.4375 10.5667 23.8547 10.4838 24.2761 10.4839ZM19.3628 18.0673C19.5056 18.0673 19.6426 18.1241 19.7435 18.225C19.8445 18.326 19.9012 18.463 19.9012 18.6058V21.2761C19.9011 21.9106 19.7129 22.5309 19.3604 23.0584C19.0078 23.5859 18.5068 23.997 17.9206 24.2398C17.3345 24.4825 16.6895 24.546 16.0672 24.4222C15.445 24.2984 14.8734 23.9929 14.4248 23.5442C13.9762 23.0956 13.6707 22.5239 13.5469 21.9016C13.4231 21.2794 13.4865 20.6343 13.7293 20.0481C13.972 19.4619 14.3831 18.9608 14.9106 18.6082C15.4381 18.2557 16.0582 18.0674 16.6927 18.0673H19.3628ZM24.2761 18.0673C24.9105 18.0674 25.5307 18.2557 26.0582 18.6082C26.5856 18.9608 26.9967 19.4619 27.2395 20.0481C27.4822 20.6343 27.5457 21.2794 27.4219 21.9016C27.2981 22.5239 26.9926 23.0956 26.544 23.5442C26.0953 23.9929 25.5238 24.2984 24.9015 24.4222C24.2793 24.546 23.6343 24.4825 23.0481 24.2398C22.462 23.997 21.9609 23.5859 21.6084 23.0584C21.2558 22.5309 21.0676 21.9106 21.0675 21.2761V18.6058C21.0675 18.463 21.1242 18.326 21.2252 18.225C21.3262 18.1241 21.4631 18.0673 21.6059 18.0673H24.2761Z" fill="#CAC2FF"/>
</svg>
