<svg width="20" height="20" viewBox="0 0 20 20" fill="none" xmlns="http://www.w3.org/2000/svg">
<!--    <g clip-path="url(#clip0_3099_9798)">-->
<!--        <path d="M9.95646 5.97824C7.77862 5.97824 6.07384 7.72901 6.07384 9.96152C6.07384 12.1963 7.77862 13.9448 9.95646 13.9448C12.0964 13.9448 13.8391 12.1583 13.8391 9.96152C13.8391 7.76692 12.0964 5.97824 9.95646 5.97824ZM9.95646 12.2542C8.70465 12.2542 7.72284 11.2484 7.72284 9.96152C7.72284 8.67688 8.70465 7.66879 9.95646 7.66879C11.2083 7.66879 12.1901 8.67688 12.1901 9.96152C12.1901 11.2484 11.2105 12.2542 9.95646 12.2542ZM19.7679 8.01671C19.6608 7.28741 19.1721 6.73876 18.4804 6.58265L18.3643 6.5648C17.8466 6.42876 17.4874 6.13213 17.1728 5.58125C16.8849 5.08836 16.8135 4.5018 16.9608 4.06466C17.2419 3.39335 17.0478 2.60383 16.5078 2.13101C15.5796 1.22998 14.4795 0.549743 13.2946 0.130451C12.6676 -0.146104 11.9692 0.0233972 11.4269 0.578736L11.3622 0.654566C10.8044 1.38387 9.53919 1.61359 8.48597 0.534131C8.20035 0.241964 7.58449 -0.204091 6.62053 0.130451C5.39327 0.663487 4.36683 1.29243 3.53452 2.01281C2.93651 2.44994 2.68659 3.235 2.91866 3.93307C3.07262 4.55978 3.00791 5.13519 2.73122 5.6437C2.49916 6.05853 2.04172 6.40422 1.49726 6.57372C1.32321 6.60272 1.19379 6.67409 1.09561 6.75215C0.720738 6.97517 0.439584 7.31641 0.24099 7.79146L0.174048 7.99664V8.08808C0.0557848 8.72594 0 9.33927 0 10.0084C0 10.5347 0.0334708 11.2952 0.189668 11.9621C0.299006 12.6891 0.78768 13.2333 1.47718 13.3895L1.59321 13.4073C2.11089 13.5433 2.46792 13.8377 2.78477 14.3886C3.07262 14.8815 3.14403 15.4681 2.99675 15.9074C2.7156 16.5788 2.90973 17.3683 3.44973 17.8411C4.38691 18.7533 5.50484 19.4335 6.77003 19.8662L6.89722 19.9108H6.90168C6.97978 19.9331 7.08243 19.9554 7.20515 19.9554H7.33681C7.80317 19.9554 8.27176 19.7502 8.66448 19.3421C9.29596 18.5771 10.5366 18.3897 11.5608 19.438C11.9134 19.7993 12.3373 20 12.7546 20C12.8997 20 13.1652 20 13.3816 19.8885C14.5888 19.3644 15.6019 18.7466 16.4743 18.0039C17.0567 17.6091 17.3178 16.7929 17.0835 16.0836C16.9295 15.4569 16.9943 14.8815 17.2709 14.3752C17.503 13.9582 17.9604 13.6147 18.5049 13.4452C18.6812 13.4184 18.8084 13.3448 18.9088 13.2646C19.2837 13.0415 19.5626 12.7025 19.7612 12.2275L19.8281 12.0223V11.9309C19.9464 11.293 20.0022 10.6774 19.9999 9.94144C19.9531 9.30581 19.9062 8.65011 19.7679 8.01671ZM18.197 11.6543C18.1345 11.7703 18.0876 11.7926 18.0631 11.806L18.0475 11.8149C17.0857 12.1093 16.2847 12.7315 15.8339 13.5367C15.3386 14.4399 15.2203 15.4792 15.4925 16.5431L15.5059 16.6211L15.4524 16.668C14.7227 17.2991 13.8658 17.8277 12.7948 18.305C12.7769 18.2938 12.7524 18.2738 12.7211 18.2425C11.9335 17.4352 11.0231 17.0092 10.0836 17.0092C9.0282 17.0092 8.05085 17.4619 7.44838 18.1979C7.3859 18.2626 7.33234 18.2648 7.33234 18.2648L7.19177 18.2202H7.16499C6.17872 17.8656 5.31071 17.3237 4.57881 16.6144L4.52749 16.523C4.85773 15.564 4.73278 14.4421 4.19947 13.5277C3.64163 12.5553 2.88072 11.971 1.8766 11.7413L1.81189 11.7324L1.81858 11.7011L1.80073 11.6008C1.70478 11.2038 1.65123 10.6395 1.65123 10.0128C1.65123 9.42848 1.69809 8.91998 1.80519 8.36464C1.86391 8.25379 1.91202 8.22767 1.93715 8.21402L1.93908 8.21298L1.95247 8.20406C2.91419 7.90966 3.71749 7.28741 4.166 6.48228C4.66137 5.57902 4.77963 4.53971 4.48286 3.40896L4.54534 3.3532C5.29955 2.69973 6.18764 2.15777 7.20292 1.71395C7.26094 1.69388 7.28325 1.69388 7.32119 1.73402C8.10887 2.54138 9.01927 2.96736 9.95869 2.96736C11.0521 2.96736 11.9959 2.53692 12.6207 1.75409C12.6631 1.71395 12.6966 1.70057 12.7033 1.71172C13.7208 2.07302 14.6201 2.62836 15.3787 3.36435L15.4301 3.4558C15.0998 4.41481 15.2248 5.53664 15.7581 6.45106C16.3159 7.42346 17.0746 8.00779 18.0809 8.23751L18.1345 8.24643C18.1367 8.25312 18.139 8.26428 18.1412 8.27989L18.1568 8.36464C18.271 8.8717 18.3117 9.43709 18.3513 9.9864C18.3519 9.99521 18.3525 10.004 18.3532 10.0128C18.3509 10.5905 18.3041 11.1012 18.197 11.6543Z" fill="#5B46F6"/>-->
        <path fill-rule="evenodd" clip-rule="evenodd" d="M18.197 11.6543C18.1345 11.7703 18.0876 11.7926 18.0631 11.806L18.0475 11.8149C17.0857 12.1093 16.2847 12.7315 15.8339 13.5367C15.3386 14.4399 15.2203 15.4792 15.4925 16.5431L15.5059 16.6211L15.4524 16.668C14.7227 17.2991 13.8658 17.8277 12.7948 18.305C12.7769 18.2938 12.7524 18.2738 12.7211 18.2425C11.9335 17.4352 11.0231 17.0092 10.0836 17.0092C9.0282 17.0092 8.05085 17.4619 7.44838 18.1979C7.3859 18.2626 7.33234 18.2648 7.33234 18.2648L7.19177 18.2202H7.16499C6.17872 17.8656 5.31071 17.3237 4.57881 16.6144L4.52749 16.523C4.85773 15.564 4.73278 14.4421 4.19947 13.5277C3.64163 12.5553 2.88072 11.971 1.8766 11.7413L1.81189 11.7324L1.81858 11.7011L1.80073 11.6008C1.70478 11.2038 1.65123 10.6395 1.65123 10.0128C1.65123 9.42848 1.69809 8.91998 1.80519 8.36464C1.86391 8.25379 1.91202 8.22767 1.93715 8.21402L1.93908 8.21298L1.95247 8.20406C2.91419 7.90966 3.71749 7.28741 4.166 6.48228C4.66137 5.57902 4.77963 4.53971 4.48286 3.40896L4.54534 3.3532C5.29955 2.69973 6.18764 2.15777 7.20292 1.71395C7.26094 1.69388 7.28325 1.69388 7.32119 1.73402C8.10887 2.54138 9.01927 2.96736 9.95869 2.96736C11.0521 2.96736 11.9959 2.53692 12.6207 1.75409C12.6631 1.71395 12.6966 1.70057 12.7033 1.71172C13.7208 2.07302 14.6201 2.62836 15.3787 3.36435L15.4301 3.4558C15.0998 4.41481 15.2248 5.53664 15.7581 6.45106C16.3159 7.42346 17.0746 8.00779 18.0809 8.23751L18.1345 8.24643C18.1367 8.25312 18.139 8.26428 18.1412 8.27989L18.1568 8.36464C18.271 8.8717 18.3117 9.43709 18.3513 9.9864L18.3532 10.0128C18.3509 10.5905 18.3041 11.1012 18.197 11.6543ZM6.07384 9.96152C6.07384 7.72901 7.77862 5.97824 9.95646 5.97824C12.0964 5.97824 13.8391 7.76692 13.8391 9.96152C13.8391 12.1583 12.0964 13.9448 9.95646 13.9448C7.77862 13.9448 6.07384 12.1963 6.07384 9.96152Z" fill="#5B46F6"/>
<!--    </g>-->
</svg>
