<svg width="35" height="35" viewBox="0 0 35 35" fill="none" xmlns="http://www.w3.org/2000/svg">
<!--<circle cx="18" cy="16.5" r="16.5" fill="white"/>-->
<path d="M9.57556 15.3122L25.2006 9.39855C25.2569 9.37699 25.3183 9.37222 25.3774 9.3848C25.4364 9.39738 25.4905 9.42679 25.5332 9.46946C25.5758 9.51213 25.6052 9.56625 25.6178 9.62527C25.6304 9.68429 25.6256 9.7457 25.6041 9.80207L19.6904 25.4271C19.6669 25.4864 19.6258 25.5371 19.5726 25.5724C19.5194 25.6076 19.4566 25.6258 19.3928 25.6243C19.329 25.6229 19.2672 25.6019 19.2156 25.5643C19.1641 25.5266 19.1253 25.4741 19.1045 25.4138L16.4717 18.9259C16.441 18.834 16.3893 18.7504 16.3208 18.6819C16.2522 18.6133 16.1687 18.5617 16.0767 18.531L9.58884 15.9005C9.52772 15.8802 9.47438 15.8414 9.43612 15.7896C9.39785 15.7378 9.37653 15.6754 9.37508 15.611C9.37363 15.5466 9.39211 15.4834 9.42799 15.4299C9.46388 15.3764 9.51542 15.3353 9.57556 15.3122Z" fill="#5B46F6" stroke="#5B46F6" stroke-width="1.00189" stroke-linecap="round" stroke-linejoin="round"/>
<path d="M25.4688 9.53223L16.3672 18.6338" stroke="white" stroke-width="1.00189" stroke-linecap="round" stroke-linejoin="round"/>
</svg>
