<svg width="20" height="20" viewBox="0 0 20 20" fill="none" xmlns="http://www.w3.org/2000/svg">
    <path d="M9.99959 8.06632C11.8685 8.06632 13.3836 6.55126 13.3836 4.68233C13.3836 2.8134 11.8685 1.29834 9.99959 1.29834C8.13066 1.29834 6.6156 2.8134 6.6156 4.68233C6.6156 6.55126 8.13066 8.06632 9.99959 8.06632Z" fill="#5B46F6" stroke="#5B46F6" stroke-width="1.5" stroke-linecap="round" stroke-linejoin="round"/>
    <path d="M2.73047 17.7352V18.7021H17.2695V17.7352C17.2695 15.9332 17.2695 15.0322 16.9006 14.3215C16.4088 13.3739 15.4653 12.621 14.2778 12.2285C13.3872 11.9341 12.2581 11.9341 10 11.9341C7.7419 11.9341 6.61282 11.9341 5.72218 12.2285C4.53471 12.621 3.59124 13.3739 3.0994 14.3215C2.73047 15.0322 2.73047 15.9332 2.73047 17.7352Z" fill="#5B46F6" stroke="#5B46F6" stroke-width="1.5" stroke-linecap="round" stroke-linejoin="round"/>
</svg>
