<svg width="20" height="20" viewBox="0 0 20 20" fill="none" xmlns="http://www.w3.org/2000/svg">
    <g clip-path="url(#clip0_2479_6088)">
        <path d="M18.3333 9.99984C18.3333 14.5998 14.6 18.3332 9.99996 18.3332C5.39996 18.3332 1.66663 14.5998 1.66663 9.99984C1.66663 5.39984 5.39996 1.6665 9.99996 1.6665C14.6 1.6665 18.3333 5.39984 18.3333 9.99984ZM16.6666 9.99984C16.6666 9.34984 16.5666 8.72484 16.3916 8.13317C15.8083 8.25817 15.2083 8.33317 14.5833 8.33317C11.975 8.33317 9.64996 7.13317 8.11663 5.25817C7.24163 7.3915 5.49996 9.0665 3.33329 9.88317C3.34163 9.9165 3.33329 9.95817 3.33329 9.99984C3.33329 13.6748 6.32496 16.6665 9.99996 16.6665C13.675 16.6665 16.6666 13.6748 16.6666 9.99984Z" fill="#5B46F6"/>
        <path d="M7.50004 11.8748C8.07504 11.8748 8.54171 11.4082 8.54171 10.8332C8.54171 10.2582 8.07504 9.7915 7.50004 9.7915C6.92504 9.7915 6.45837 10.2582 6.45837 10.8332C6.45837 11.4082 6.92504 11.8748 7.50004 11.8748Z" fill="#5B46F6"/>
        <path d="M11.4584 10.8332C11.4584 10.2582 11.925 9.7915 12.5 9.7915C13.075 9.7915 13.5417 10.2582 13.5417 10.8332C13.5417 11.4082 13.075 11.8748 12.5 11.8748C11.925 11.8748 11.4584 11.4082 11.4584 10.8332Z" fill="#5B46F6"/>
    </g>
    <defs>
        <clipPath id="clip0_2479_6088">
            <rect width="20" height="20" fill="white"/>
        </clipPath>
    </defs>
</svg>
