<svg width="16" height="16" viewBox="0 0 16 16" fill="current" xmlns="http://www.w3.org/2000/svg">
    <g clip-path="url(#clip0_3069_6350)">
        <path fill-rule="evenodd" clip-rule="evenodd" d="M10.7812 8.67285C11.5967 9.22642 12.1682 9.97642 12.1682 10.9764V12.7621H14.5491V10.9764C14.5491 9.6788 12.4241 8.91095 10.7812 8.67285Z" />
        <path d="M6.21494 8.00019C7.5299 8.00019 8.59589 6.9342 8.59589 5.61923C8.59589 4.30427 7.5299 3.23828 6.21494 3.23828C4.89997 3.23828 3.83398 4.30427 3.83398 5.61923C3.83398 6.9342 4.89997 8.00019 6.21494 8.00019Z" />
        <path fill-rule="evenodd" clip-rule="evenodd" d="M9.78581 8.00019C11.1013 8.00019 12.1668 6.93471 12.1668 5.61923C12.1668 4.30376 11.1013 3.23828 9.78581 3.23828C9.50605 3.23828 9.24414 3.2978 8.99414 3.38114C9.48819 3.99423 9.78581 4.774 9.78581 5.61923C9.78581 6.46447 9.48819 7.24423 8.99414 7.85733C9.24414 7.94066 9.50605 8.00019 9.78581 8.00019Z" />
        <path fill-rule="evenodd" clip-rule="evenodd" d="M6.21503 8.5957C4.62574 8.5957 1.45312 9.39332 1.45312 10.9767V12.7624H10.9769V10.9767C10.9769 9.39332 7.80432 8.5957 6.21503 8.5957Z" />
    </g>
<!--    <defs>-->
<!--        <clipPath id="clip0_3069_6350">-->
<!--            <rect width="14.2857" height="14.2857" fill="white" transform="translate(0.857422 0.857422)"/>-->
<!--        </clipPath>-->
<!--    </defs>-->
</svg>
