<svg width="20" height="20" viewBox="0 0 20 20" fill="none" xmlns="http://www.w3.org/2000/svg">
    <path d="M17.2719 13.3542L18.3526 14.0399C18.4193 14.0819 18.4745 14.1416 18.5129 14.2132C18.5513 14.2849 18.5714 14.366 18.5714 14.4485C18.5714 14.531 18.5513 14.6121 18.5129 14.6838C18.4745 14.7554 18.4193 14.8152 18.3526 14.8571L10.4634 19.8642C10.3232 19.9531 10.1631 20 10 20C9.83692 20 9.67684 19.9531 9.53665 19.8642L1.64875 14.8571C1.5821 14.8152 1.52686 14.7554 1.48849 14.6838C1.45011 14.6121 1.42993 14.531 1.42993 14.4485C1.42993 14.366 1.45011 14.2849 1.48849 14.2132C1.52686 14.1416 1.5821 14.0819 1.64875 14.0399L2.72948 13.3542L10 17.9685L17.2719 13.3542ZM17.2719 8.88287L18.3526 9.56858C18.419 9.61057 18.4739 9.67026 18.5121 9.74177C18.5502 9.81328 18.5703 9.89414 18.5703 9.97643C18.5703 10.0587 18.5502 10.1396 18.5121 10.2111C18.4739 10.2826 18.419 10.3423 18.3526 10.3843L10 15.6856L1.64741 10.3857C1.58076 10.3438 1.52553 10.2841 1.48715 10.2124C1.44877 10.1408 1.42859 10.0597 1.42859 9.97714C1.42859 9.89462 1.44877 9.81353 1.48715 9.74187C1.52553 9.67022 1.58076 9.61049 1.64741 9.56858L2.72948 8.88287L10 13.4957L17.2719 8.88144V8.88287ZM10.4607 0.13442L18.3526 5.14292C18.4193 5.18483 18.4745 5.24457 18.5129 5.31622C18.5513 5.38787 18.5714 5.46897 18.5714 5.55149C18.5714 5.63401 18.5513 5.71511 18.5129 5.78676C18.4745 5.85841 18.4193 5.91815 18.3526 5.96006L10 11.26L1.64741 5.96006C1.58076 5.91815 1.52553 5.85841 1.48715 5.78676C1.44877 5.71511 1.42859 5.63401 1.42859 5.55149C1.42859 5.46897 1.44877 5.38787 1.48715 5.31622C1.52553 5.24457 1.58076 5.18483 1.64741 5.14292L9.53665 0.135849C9.67684 0.0469315 9.83692 0 10 0C10.1631 0 10.3232 0.0469315 10.4634 0.135849L10.4607 0.13442Z" fill="#5B46F6"/>
</svg>
