<svg width="20" height="20" viewBox="0 0 20 20" fill="none" xmlns="http://www.w3.org/2000/svg">
    <g clip-path="url(#clip0_2245_2192)">
        <path d="M9.99996 1.66669C5.41663 1.66669 1.66663 5.41669 1.66663 10C1.66663 14.5834 5.41663 18.3334 9.99996 18.3334C14.5833 18.3334 18.3333 14.5834 18.3333 10C18.3333 5.41669 14.5833 1.66669 9.99996 1.66669ZM9.99996 16.6667C6.32496 16.6667 3.33329 13.675 3.33329 10C3.33329 6.32502 6.32496 3.33335 9.99996 3.33335C13.675 3.33335 16.6666 6.32502 16.6666 10C16.6666 13.675 13.675 16.6667 9.99996 16.6667ZM10.4166 5.83335H9.16663V10.8334L13.5 13.5L14.1666 12.4167L10.4166 10.1667V5.83335Z" fill="#5B5B5B"/>
    </g>
    <defs>
        <clipPath id="clip0_2245_2192">
            <rect width="20" height="20" fill="white"/>
        </clipPath>
    </defs>
</svg>
