<svg width="20" height="20" viewBox="0 0 20 20" fill="none" xmlns="http://www.w3.org/2000/svg">
    <g clip-path="url(#clip0_2245_2187)">
        <path d="M9.99996 1.66669C5.39996 1.66669 1.66663 5.40002 1.66663 10C1.66663 14.6 5.39996 18.3334 9.99996 18.3334C14.6 18.3334 18.3333 14.6 18.3333 10C18.3333 5.40002 14.6 1.66669 9.99996 1.66669ZM5.89163 15.2334C6.24996 14.4834 8.43329 13.75 9.99996 13.75C11.5666 13.75 13.7583 14.4834 14.1083 15.2334C12.975 16.1334 11.55 16.6667 9.99996 16.6667C8.44996 16.6667 7.02496 16.1334 5.89163 15.2334ZM15.3 14.025C14.1083 12.575 11.2166 12.0834 9.99996 12.0834C8.78329 12.0834 5.89163 12.575 4.69996 14.025C3.84996 12.9084 3.33329 11.5167 3.33329 10C3.33329 6.32502 6.32496 3.33335 9.99996 3.33335C13.675 3.33335 16.6666 6.32502 16.6666 10C16.6666 11.5167 16.15 12.9084 15.3 14.025ZM9.99996 5.00002C8.38329 5.00002 7.08329 6.30002 7.08329 7.91669C7.08329 9.53335 8.38329 10.8334 9.99996 10.8334C11.6166 10.8334 12.9166 9.53335 12.9166 7.91669C12.9166 6.30002 11.6166 5.00002 9.99996 5.00002ZM9.99996 9.16669C9.30829 9.16669 8.74996 8.60835 8.74996 7.91669C8.74996 7.22502 9.30829 6.66669 9.99996 6.66669C10.6916 6.66669 11.25 7.22502 11.25 7.91669C11.25 8.60835 10.6916 9.16669 9.99996 9.16669Z" fill="#5B5B5B"/>
    </g>
    <defs>
        <clipPath id="clip0_2245_2187">
            <rect width="20" height="20" fill="white"/>
        </clipPath>
    </defs>
</svg>
