<svg width="20" height="20" viewBox="0 0 20 20" fill="none" xmlns="http://www.w3.org/2000/svg">
    <path d="M18.3992 15.475H17.1983C17.1046 15.475 17.0264 15.5531 17.0264 15.6468V17.0263H2.97063V2.96825H17.0287V4.34772C17.0287 4.44147 17.1068 4.51959 17.2005 4.51959H18.4014C18.4952 4.51959 18.5733 4.4437 18.5733 4.34772V2.11111C18.5733 1.73165 18.2675 1.42584 17.888 1.42584H2.11349C1.73403 1.42584 1.42822 1.73165 1.42822 2.11111V17.8834C1.42822 18.2629 1.73403 18.5687 2.11349 18.5687H17.8858C18.2653 18.5687 18.5711 18.2629 18.5711 17.8834V15.6468C18.5711 15.5508 18.493 15.475 18.3992 15.475ZM18.8144 9.85665L15.647 7.35665C15.5287 7.2629 15.3568 7.34772 15.3568 7.49727V9.1937H8.34787C8.24965 9.1937 8.16929 9.27406 8.16929 9.37227V10.6223C8.16929 10.7205 8.24965 10.8008 8.34787 10.8008H15.3568V12.4973C15.3568 12.6468 15.5309 12.7316 15.647 12.6379L18.8144 10.1379C18.8357 10.1212 18.853 10.0999 18.8649 10.0755C18.8767 10.0511 18.8829 10.0244 18.8829 9.99727C18.8829 9.97017 18.8767 9.94342 18.8649 9.91906C18.853 9.89469 18.8357 9.87335 18.8144 9.85665Z" fill="#5B46F6"/>
</svg>
